<svg width="20" height="20" viewBox="0 0 20 20" fill="none" xmlns="http://www.w3.org/2000/svg">
<g id="icon / search">
<path id="Union" fill-rule="evenodd" clip-rule="evenodd" d="M1.5 8.73204C1.5 4.7379 4.7379 1.5 8.73204 1.5C12.7262 1.5 15.9641 4.7379 15.9641 8.73204C15.9641 12.7262 12.7262 15.9641 8.73204 15.9641C4.7379 15.9641 1.5 12.7262 1.5 8.73204ZM8.73204 0.5C4.18561 0.5 0.5 4.18561 0.5 8.73204C0.5 13.2785 4.18561 16.9641 8.73204 16.9641C10.8425 16.9641 12.7675 16.1699 14.2244 14.8641L18.5962 19.2358L19.3033 18.5287L14.9274 14.1529C16.1955 12.7048 16.9641 10.8081 16.9641 8.73204C16.9641 4.18561 13.2785 0.5 8.73204 0.5Z" fill="#20253B"/>
</g>
</svg>
